<svg xmlns="http://www.w3.org/2000/svg" xmlns:xlink="http://www.w3.org/1999/xlink" width="500" zoomAndPan="magnify" viewBox="0 0 375 374.999991" height="500" preserveAspectRatio="xMidYMid meet" version="1.0"><defs><clipPath id="id1"><path d="M 135 17.003906 L 240 17.003906 L 240 127 L 135 127 Z M 135 17.003906 " clip-rule="nonzero"/></clipPath><clipPath id="id2"><path d="M 238 82 L 337.5 82 L 337.5 178 L 238 178 Z M 238 82 " clip-rule="nonzero"/></clipPath><clipPath id="id3"><path d="M 238 197 L 337.5 197 L 337.5 294 L 238 294 Z M 238 197 " clip-rule="nonzero"/></clipPath><clipPath id="id4"><path d="M 135 248 L 240 248 L 240 358.253906 L 135 358.253906 Z M 135 248 " clip-rule="nonzero"/></clipPath><clipPath id="id5"><path d="M 37.5 197 L 137 197 L 137 294 L 37.5 294 Z M 37.5 197 " clip-rule="nonzero"/></clipPath><clipPath id="id6"><path d="M 37.5 82 L 137 82 L 137 178 L 37.5 178 Z M 37.5 82 " clip-rule="nonzero"/></clipPath></defs><g clip-path="url(#id1)"><path fill="rgb(41.178894%, 78.819275%, 82.348633%)" d="M 152.730469 54.242188 C 162.386719 54.242188 170.21875 62.074219 170.21875 71.734375 C 170.21875 81.402344 162.386719 89.234375 152.730469 89.234375 C 143.078125 89.234375 135.25 81.402344 135.25 71.734375 C 135.25 62.074219 143.078125 54.242188 152.730469 54.242188 Z M 222.265625 54.242188 C 231.921875 54.242188 239.75 62.074219 239.75 71.734375 C 239.75 81.402344 231.921875 89.234375 222.265625 89.234375 C 212.609375 89.234375 204.78125 81.402344 204.78125 71.734375 C 204.78125 62.074219 212.609375 54.242188 222.265625 54.242188 Z M 178.542969 49.53125 C 173.25 46.367188 170.015625 40.671875 170.015625 34.496094 C 170.015625 24.835938 177.84375 17.003906 187.5 17.003906 C 197.15625 17.003906 204.984375 24.835938 204.984375 34.496094 C 204.984375 40.523438 201.941406 45.835938 197.316406 48.980469 C 188.496094 54.976562 187.0625 88.253906 196.570312 94.011719 C 201.617188 97.082031 204.984375 102.632812 204.984375 108.972656 C 204.984375 118.636719 197.15625 126.472656 187.5 126.472656 C 177.84375 126.472656 170.015625 118.636719 170.015625 108.972656 C 170.015625 102.585938 173.4375 96.996094 178.542969 93.945312 C 186.929688 89.019531 186.96875 54.589844 178.542969 49.53125 Z M 178.542969 49.53125 " fill-opacity="1" fill-rule="evenodd"/></g><g clip-path="url(#id2)"><path fill="rgb(20.388794%, 77.249146%, 94.119263%)" d="M 320.316406 151.066406 C 325.144531 159.433594 322.277344 170.136719 313.914062 174.964844 C 305.550781 179.800781 294.855469 176.933594 290.027344 168.5625 C 285.203125 160.195312 288.066406 149.492188 296.429688 144.660156 C 304.792969 139.828125 315.484375 142.695312 320.316406 151.066406 Z M 302.527344 110.816406 C 302.617188 104.648438 305.925781 98.996094 311.269531 95.910156 C 319.632812 91.078125 330.324219 93.945312 335.152344 102.316406 C 339.980469 110.683594 337.117188 121.386719 328.757812 126.21875 C 323.542969 129.230469 317.425781 129.25 312.386719 126.8125 C 302.789062 122.164062 273.273438 137.5625 273.046875 148.679688 C 272.914062 154.589844 269.792969 160.285156 264.308594 163.453125 C 255.945312 168.285156 245.25 165.417969 240.425781 157.050781 C 235.597656 148.679688 238.460938 137.980469 246.824219 133.148438 C 252.351562 129.953125 258.894531 130.125 264.09375 133.023438 C 272.546875 137.828125 302.367188 120.648438 302.527344 110.816406 Z M 285.546875 90.800781 C 290.375 99.171875 287.507812 109.871094 279.148438 114.703125 C 270.785156 119.535156 260.089844 116.667969 255.261719 108.300781 C 250.4375 99.929688 253.300781 89.226562 261.664062 84.398438 C 270.023438 79.5625 280.71875 82.433594 285.546875 90.800781 Z M 285.546875 90.800781 " fill-opacity="1" fill-rule="evenodd"/></g><g clip-path="url(#id3)"><path fill="rgb(0%, 68.629456%, 93.728638%)" d="M 320.316406 224.1875 C 315.488281 232.558594 304.792969 235.425781 296.429688 230.59375 C 288.066406 225.765625 285.203125 215.0625 290.027344 206.691406 C 294.855469 198.324219 305.550781 195.457031 313.914062 200.289062 C 322.277344 205.117188 325.144531 215.820312 320.316406 224.1875 Z M 285.546875 284.453125 C 280.71875 292.824219 270.023438 295.691406 261.664062 290.859375 C 253.300781 286.027344 250.433594 275.324219 255.261719 266.953125 C 260.089844 258.585938 270.785156 255.71875 279.148438 260.550781 C 287.507812 265.382812 290.375 276.085938 285.546875 284.453125 Z M 311.484375 248.914062 C 316.867188 245.910156 323.410156 245.949219 328.757812 249.039062 C 337.117188 253.871094 339.980469 264.574219 335.152344 272.941406 C 330.324219 281.3125 319.632812 284.179688 311.269531 279.347656 C 306.058594 276.335938 302.980469 271.042969 302.570312 265.457031 C 301.792969 254.816406 273.710938 236.9375 263.976562 242.296875 C 258.796875 245.132812 252.308594 245.277344 246.824219 242.109375 C 238.460938 237.277344 235.597656 226.574219 240.425781 218.207031 C 245.25 209.839844 255.945312 206.96875 264.308594 211.800781 C 269.835938 214.996094 272.960938 220.753906 273.050781 226.707031 C 273.117188 236.4375 302.894531 253.6875 311.484375 248.914062 Z M 311.484375 248.914062 " fill-opacity="1" fill-rule="evenodd"/></g><g clip-path="url(#id4)"><path fill="rgb(41.178894%, 78.819275%, 82.348633%)" d="M 222.269531 321.015625 C 212.613281 321.015625 204.78125 313.183594 204.78125 303.519531 C 204.78125 293.855469 212.613281 286.019531 222.269531 286.019531 C 231.925781 286.019531 239.75 293.855469 239.75 303.519531 C 239.75 313.183594 231.925781 321.015625 222.269531 321.015625 Z M 196.457031 325.726562 C 201.75 328.890625 204.984375 334.582031 204.984375 340.757812 C 204.984375 350.417969 197.15625 358.253906 187.5 358.253906 C 177.84375 358.253906 170.015625 350.417969 170.015625 340.757812 C 170.015625 334.734375 173.058594 329.421875 177.683594 326.273438 C 186.503906 320.277344 187.9375 287 178.429688 281.242188 C 173.382812 278.175781 170.015625 272.625 170.015625 266.28125 C 170.015625 256.617188 177.84375 248.785156 187.5 248.785156 C 197.15625 248.785156 204.984375 256.617188 204.984375 266.28125 C 204.984375 272.671875 201.566406 278.257812 196.457031 281.3125 C 188.070312 286.234375 188.03125 320.667969 196.457031 325.726562 Z M 152.734375 321.015625 C 143.078125 321.015625 135.25 313.183594 135.25 303.519531 C 135.25 293.855469 143.078125 286.019531 152.730469 286.019531 C 162.390625 286.019531 170.21875 293.855469 170.21875 303.519531 C 170.21875 313.183594 162.390625 321.015625 152.734375 321.015625 Z M 152.734375 321.015625 " fill-opacity="1" fill-rule="evenodd"/></g><g clip-path="url(#id5)"><path fill="rgb(20.388794%, 77.249146%, 94.119263%)" d="M 54.6875 224.191406 C 49.859375 215.820312 52.726562 205.117188 61.085938 200.289062 C 69.449219 195.457031 80.144531 198.324219 84.972656 206.691406 C 89.800781 215.0625 86.933594 225.765625 78.570312 230.597656 C 70.207031 235.425781 59.515625 232.558594 54.6875 224.191406 Z M 72.472656 264.4375 C 72.378906 270.609375 69.074219 276.257812 63.730469 279.347656 C 55.367188 284.179688 44.675781 281.3125 39.847656 272.941406 C 35.019531 264.574219 37.882812 253.871094 46.246094 249.039062 C 51.457031 246.027344 57.574219 246.007812 62.613281 248.445312 C 72.210938 253.089844 101.726562 237.691406 101.953125 226.574219 C 102.085938 220.667969 105.207031 214.972656 110.695312 211.800781 C 119.054688 206.96875 129.75 209.839844 134.578125 218.207031 C 139.40625 226.574219 136.539062 237.277344 128.175781 242.109375 C 122.648438 245.304688 116.105469 245.132812 110.90625 242.230469 C 102.453125 237.425781 72.636719 254.605469 72.472656 264.4375 Z M 89.453125 284.453125 C 84.625 276.085938 87.492188 265.382812 95.851562 260.550781 C 104.21875 255.722656 114.910156 258.585938 119.738281 266.953125 C 124.566406 275.324219 121.699219 286.027344 113.335938 290.859375 C 104.976562 295.691406 94.28125 292.824219 89.453125 284.453125 Z M 89.453125 284.453125 " fill-opacity="1" fill-rule="evenodd"/></g><g clip-path="url(#id6)"><path fill="rgb(0%, 68.629456%, 93.728638%)" d="M 89.453125 90.800781 C 94.28125 82.433594 104.976562 79.5625 113.335938 84.398438 C 121.699219 89.226562 124.566406 99.929688 119.738281 108.300781 C 114.910156 116.667969 104.214844 119.535156 95.851562 114.707031 C 87.492188 109.875 84.625 99.171875 89.453125 90.800781 Z M 63.515625 126.339844 C 58.128906 129.34375 51.589844 129.304688 46.246094 126.21875 C 37.882812 121.386719 35.019531 110.683594 39.847656 102.316406 C 44.675781 93.945312 55.367188 91.078125 63.730469 95.910156 C 68.941406 98.921875 72.019531 104.214844 72.429688 109.796875 C 73.207031 120.4375 101.289062 138.320312 111.023438 132.960938 C 116.203125 130.121094 122.691406 129.976562 128.175781 133.148438 C 136.539062 137.980469 139.40625 148.679688 134.578125 157.050781 C 129.75 165.417969 119.058594 168.285156 110.695312 163.453125 C 105.164062 160.261719 102.039062 154.5 101.949219 148.546875 C 101.882812 138.816406 72.105469 121.566406 63.515625 126.339844 Z M 54.6875 151.066406 C 59.515625 142.699219 70.207031 139.828125 78.570312 144.660156 C 86.933594 149.492188 89.800781 160.195312 84.972656 168.5625 C 80.144531 176.933594 69.449219 179.800781 61.085938 174.96875 C 52.722656 170.136719 49.859375 159.433594 54.6875 151.066406 Z M 54.6875 151.066406 " fill-opacity="1" fill-rule="evenodd"/></g><path fill="rgb(0%, 68.629456%, 93.728638%)" d="M 187.5 155.480469 C 205.238281 155.480469 219.625 169.875 219.625 187.628906 C 219.625 205.382812 205.238281 219.773438 187.5 219.773438 C 169.761719 219.773438 155.375 205.382812 155.375 187.628906 C 155.375 169.875 169.761719 155.480469 187.5 155.480469 Z M 187.5 155.480469 " fill-opacity="1" fill-rule="evenodd"/></svg>